The Secret(The Secret of life) In Hindi By Suraj Sandhu.avi
Format : AVI
Format/Info : Audio Video Interleave
File size : 525 MiB
Duration : 1h 31mn
Overall bit rate : 806 Kbps
Movie name : The Secreat
Director : Postarbhai
Writing library : TMPGEnc 4.0 XPress Version. 4.2.3.193
Copyright : 3starhomevideo@gmail.com
Video #0
ID : 0
Format : MPEG-4 Visual
Format profile : AdvancedSimple@L5
Format settings, BVOP : Yes
Format settings, QPel : No
Format settings, GMC : No warppoints
Format settings, Matrix : Default (H.263)
Muxing mode : Packed bitstream
Codec ID : XVID
Codec ID/Hint : XviD
Duration : 1h 31mn
Bit rate : 534 Kbps
Width : 592 pixels
Height : 266 pixels
Display aspect ratio : 2.226
Frame rate : 29.970 fps
Resolution : 24 bits
Colorimetry : 4:2:0
Scan type : Progressive
Bits/(Pixel*Frame) : 0.113
Stream size : 348 MiB (66%)
Writing library : XviD 1.2.1 (UTC 2008-12-04)
Audio #1
ID : 1
Format : MPEG Audio
Format version : Version 1
Format profile : Layer 3
Codec ID : 55
Codec ID/Hint : MP3
Duration : 1h 31mn
Bit rate mode : Constant
Bit rate : 256 Kbps
Channel(s) : 2 channels
Sampling rate : 48.0 KHz
Resolution : 16 bits
Stream size : 167 MiB (32%)
Alignment : Aligned on interleaves
Interleave, duration : 33 ms (1.00 video frame)
Interleave, preload duration : 432 ms